<svg xmlns="http://www.w3.org/2000/svg" viewBox="0 0 191 48">
  <g fill="#0E56F6" fill-rule="evenodd">
    <path d="M74.899 26.285l-1.83-1.837a1.42 1.42 0 00-2.016 0 1.434 1.434 0 000 2.023l1.832 1.838a8.549 8.549 0 01-5.014 1.618 8.565 8.565 0 01-6.11-2.54c-3.37-3.382-3.37-8.887 0-12.27a8.566 8.566 0 016.11-2.54c2.308 0 4.478.902 6.11 2.54 3.026 3.038 3.326 7.781.918 11.168zm2.036 2.043c3.507-4.522 3.2-11.078-.938-15.233a11.397 11.397 0 00-8.126-3.378c-3.07 0-5.956 1.199-8.126 3.378-4.48 4.498-4.48 11.816 0 16.315a11.395 11.395 0 008.126 3.378c2.588 0 5.04-.862 7.049-2.436l1.999 2.007a1.42 1.42 0 002.016 0 1.435 1.435 0 000-2.023l-2-2.008zM85.79 10.251c-1.075 0-2.014.694-2.014 1.773 0 1.08.94 2.275 2.014 2.275 1.076 0 2.016-.943 2.016-2.022 0-1.08-.94-2.026-2.016-2.026M85.79 32.754c-.75 0-1.36-.611-1.36-1.364V17.816c0-.091 0-.185.042-.23.114-.66.66-1.135 1.317-1.135.667 0 1.22.488 1.322 1.163.038.047.038.128.038.202V31.39c0 .753-.61 1.364-1.36 1.364M94.305 32.754a1.352 1.352 0 01-1.33-1.203c-.03-.04-.03-.104-.03-.161V11.608c0-.09 0-.19.044-.237a1.34 1.34 0 011.316-1.128c.66 0 1.211.482 1.32 1.151.04.05.04.135.04.214V31.39a.407.407 0 01-.031.164 1.351 1.351 0 01-1.33 1.2M104.635 32.74c-.39 0-.755-.171-1.005-.47l-5.458-6.448c-.608-.712-.803-1.123-.803-1.691 0-.548.24-1.054.804-1.691l5.534-6.526a1.305 1.305 0 011.847-.162c.269.225.433.542.464.892.03.35-.077.692-.303.962l-5.536 6.463v.126l5.46 6.383c.225.27.333.611.302.961a1.309 1.309 0 01-1.306 1.202M112.459 16.438c0-2.022 1.812-3.517 4.97-3.517 1.479 0 2.804.145 4.181.449a1.23 1.23 0 00.972-2.223 1.065 1.065 0 00-.381-.181c-1.336-.401-3.058-.608-4.838-.608-4.469 0-7.727 2.338-7.727 6.216 0 7.52 11.657 4.9 11.657 9.926 0 2.191-1.68 3.583-5.307 3.583-1.747 0-3.563-.266-5.141-.806a.611.611 0 00-.278-.011c-.575-.011-1.105.353-1.25.937-.166.68.247 1.366.924 1.533 1.41.505 3.595.911 5.778.911 5.274 0 8.097-2.405 8.097-6.317 0-7.283-11.657-4.933-11.657-9.892M135.37 32.791c-2.647 0-4.837-.757-6.329-2.188-1.463-1.433-2.115-3.12-2.115-5.476l.006-2.03c0-2.357.624-4.044 2.022-5.473 1.272-1.276 3.214-2.085 5.211-2.175v-.004l.091-.013h.272c2.184 0 4.415.84 5.823 2.19 1.463 1.43 2.115 3.118 2.115 5.475v.88c0 1.125-.37 1.504-1.466 1.504h-8.361a.82.82 0 01-.366-.075 1.217 1.217 0 01-.867-1.163c0-.538.355-1.008.884-1.167a.773.773 0 01.349-.07h7.097v-.044c0-2.913-2.093-4.89-5.208-4.92-2.923.03-4.89 2.007-4.89 4.92l.016 1.318c0 2.091.413 3.358 1.425 4.374.985.988 2.509 1.532 4.291 1.532 1.57 0 2.77-.314 4.196-.823a.735.735 0 01.22-.038l.12.013c.564 0 1.039.353 1.187.878a1.24 1.24 0 01-.853 1.528c-.86.314-3.07 1.047-4.87 1.047M147.398 32.859c-.647 0-1.193-.47-1.314-1.123-.045-.052-.045-.152-.045-.243v-9.2c0-2.434.427-3.764 1.634-5.081 1.075-1.148 2.755-1.78 4.731-1.78.905 0 1.676.141 2.064.378.362.22.672.753.533 1.303-.148.59-.554.888-1.205.888 0 0-.77-.006-.989-.006-1.338 0-2.347.331-2.998.987-.786.788-1.051 1.794-1.051 3.986v8.525c0 .091 0 .2-.048.25-.122.65-.667 1.116-1.312 1.116M183.483 32.731c-2.639 0-4.82-.755-6.307-2.18-1.459-1.428-2.11-3.11-2.11-5.458l.007-2.023c0-2.348.622-4.03 2.016-5.454 1.268-1.272 3.205-2.079 5.195-2.167v-.004l.09-.013h.268c2.177 0 4.4.837 5.803 2.183 1.459 1.425 2.109 3.107 2.109 5.455v.877c0 1.121-.369 1.5-1.461 1.5h-8.332a.829.829 0 01-.365-.076 1.212 1.212 0 01-.864-1.159c0-.537.354-1.004.88-1.163a.78.78 0 01.349-.07h7.071v-.044c0-2.902-2.085-4.872-5.188-4.902-2.914.03-4.874 2-4.874 4.902l.017 1.314c0 2.084.411 3.346 1.42 4.359.98.984 2.5 1.527 4.276 1.527 1.564 0 2.76-.314 4.18-.82a.734.734 0 01.219-.038l.12.012c.562 0 1.035.352 1.183.875a1.236 1.236 0 01-.85 1.522c-.857.313-3.06 1.045-4.852 1.045M165.484 32.775c-.906 0-1.673-.585-2.051-1.565l-5.478-13.877a1.326 1.326 0 01.836-1.854c.116-.033.237-.05.357-.05.592 0 1.115.401 1.275.975l5.113 12.97 5.225-13.135c.06-.14.1-.223.181-.223.17-.347.587-.587 1.025-.587a1.273 1.273 0 011.157.77c.136.315.142.665.017.983l-5.662 14.03c-.41.994-1.137 1.563-1.995 1.563M22.038 31.386a1.642 1.642 0 002.33 0 1.658 1.658 0 000-2.34l-1.673-1.68a1.641 1.641 0 00-2.33 0 1.659 1.659 0 000 2.34l1.673 1.68zm17.937.245a21.234 21.234 0 002.415-9.882c0-5.685-2.204-11.029-6.208-15.049C32.177 2.68 26.853.467 21.19.467 15.527.467 10.203 2.68 6.2 6.7c-8.267 8.298-8.267 21.8 0 30.097 4.003 4.02 9.327 6.234 14.99 6.234 3.535 0 6.937-.862 9.969-2.488l6.628 6.653a1.638 1.638 0 002.33 0 1.658 1.658 0 000-2.34l-6.123-6.147c.354-.269.699-.552 1.036-.845l2.383 2.392a1.64 1.64 0 002.331 0 1.66 1.66 0 000-2.34l-2.392-2.4c.283-.334.557-.672.817-1.02l1.732 1.74a1.638 1.638 0 002.33 0 1.658 1.658 0 000-2.34l-2.256-2.265zm-6.164.33l-11.49-11.535a1.644 1.644 0 00-2.33 0 1.659 1.659 0 000 2.34l11.503 11.548c-.346.288-.704.556-1.07.811l-2.11-2.117v-.001l-.396-.396a1.64 1.64 0 00-2.331 0 1.658 1.658 0 000 2.339l1.828 1.835a16.136 16.136 0 01-6.224 1.238c-4.33 0-8.402-1.693-11.464-4.767-6.321-6.344-6.321-16.67 0-23.015A16.077 16.077 0 0121.19 5.474c4.33 0 8.401 1.694 11.463 4.767a16.202 16.202 0 014.748 11.508c0 2.13-.407 4.197-1.18 6.113l-2.35-2.358a1.643 1.643 0 00-2.33 0 1.66 1.66 0 00-.001 2.34l3.052 3.063c-.245.36-.505.713-.782 1.054zm13.644 9.518a1.635 1.635 0 01-1.165.485c-.422 0-.844-.161-1.165-.485L43.45 39.8a1.658 1.658 0 010-2.339 1.644 1.644 0 012.331 0l1.673 1.68a1.658 1.658 0 010 2.34z"/>
  </g>
</svg>
